<svg id="Layer_1" data-name="Layer 1" xmlns="http://www.w3.org/2000/svg" viewBox="0 0 267 75"><defs><style>.cls-1{fill:#bec5d2;}</style></defs><title>logo</title><path class="cls-1" d="M109.87,49.59a18,18,0,0,1-5.1-.71A11.82,11.82,0,0,1,100.85,47l1.73-3.85a12.26,12.26,0,0,0,3.34,1.66,12.56,12.56,0,0,0,4,.64,7.83,7.83,0,0,0,2.44-.31,3,3,0,0,0,1.37-.84,1.77,1.77,0,0,0,.44-1.21,1.68,1.68,0,0,0-.69-1.41,5.8,5.8,0,0,0-1.85-.85c-.76-.22-1.6-.43-2.5-.63s-1.82-.44-2.73-.72a10.9,10.9,0,0,1-2.52-1.14A5.26,5.26,0,0,1,102,36.52a5.63,5.63,0,0,1-.68-2.88,6.28,6.28,0,0,1,1-3.46,6.91,6.91,0,0,1,3.07-2.49,12.68,12.68,0,0,1,5.19-.93,16.91,16.91,0,0,1,4.12.51,12.06,12.06,0,0,1,3.54,1.45l-1.6,3.84a13,13,0,0,0-3.06-1.27,11.41,11.41,0,0,0-3-.43,7.33,7.33,0,0,0-2.43.33,2.78,2.78,0,0,0-1.34.9,2.08,2.08,0,0,0-.42,1.26,1.71,1.71,0,0,0,.69,1.42,5,5,0,0,0,1.83.84c.75.2,1.6.4,2.52.6a25.75,25.75,0,0,1,2.74.74,11.59,11.59,0,0,1,2.5,1.12,5.15,5.15,0,0,1,2.55,4.68,6,6,0,0,1-1,3.41,7.09,7.09,0,0,1-3.1,2.49A12.59,12.59,0,0,1,109.87,49.59Z"/><path class="cls-1" d="M133.26,49.59a13.34,13.34,0,0,1-4.74-.83,11,11,0,0,1-6.31-6,12.08,12.08,0,0,1,0-9.15A11,11,0,0,1,124.73,30a11.31,11.31,0,0,1,3.82-2.38,13.94,13.94,0,0,1,9.95.16,10.1,10.1,0,0,1,3.91,2.91l-3.31,3a7.66,7.66,0,0,0-2.51-2,7.07,7.07,0,0,0-3-.66,7.67,7.67,0,0,0-2.84.52A6.59,6.59,0,0,0,127,35.31a8.18,8.18,0,0,0,0,5.74,6.71,6.71,0,0,0,1.47,2.24,6.53,6.53,0,0,0,2.24,1.46,7.48,7.48,0,0,0,2.84.52,6.81,6.81,0,0,0,3-.68,7.56,7.56,0,0,0,2.51-2l3.31,3a10.25,10.25,0,0,1-3.91,2.93A13,13,0,0,1,133.26,49.59Z"/><path class="cls-1" d="M151,49.21h-5.14V27.14H151Zm10.38-9.05H150.54V35.84h10.79Zm-.38-13h5.11V49.21H161Z"/><path class="cls-1" d="M176.37,45.11h12v4.1H171.29V27.14H188v4.1h-11.6ZM176,36h10.63v4H176Z"/><path class="cls-1" d="M192.45,49.21V27.14h4.23l9.39,15.58h-2.24L213,27.14h4.26V49.21h-4.76l-.07-14.72h.95L206,46.85h-2.27l-7.54-12.36h1V49.21Z"/><path class="cls-1" d="M227.64,45.11h12v4.1H222.56V27.14h16.69v4.1H227.64ZM227.26,36h10.63v4H227.26Z"/><path class="cls-1" d="M56.6,6.8A30.7,30.7,0,1,0,87.3,37.5,30.7,30.7,0,0,0,56.6,6.8ZM48.88,53.88l-7.82,1.87a1.38,1.38,0,0,1-1.36-.33,1.28,1.28,0,0,1-.34-1.21l1.92-8.07c.08-.34.28-.42.58-.28,1.62.74,3.24,1.47,4.85,2.23a.85.85,0,0,1,.36.41c.73,1.55,1.45,3.12,2.17,4.69C49.44,53.63,49.38,53.76,48.88,53.88Zm5.06-2.4a1.93,1.93,0,0,1-.6-.09c-.77-.36-1.54-.74-2.29-1.15a1.39,1.39,0,0,1-.54-.56c-.46-.93-.87-1.87-1.29-2.81a1.74,1.74,0,0,0-.95-.95c-1-.43-1.9-.86-2.84-1.31a1.18,1.18,0,0,1-.51-.48c-.44-.8-.84-1.62-1.23-2.44a.58.58,0,0,1,0-.5c0-.08.33-.07.46,0q3.27,1.47,6.52,3l.2.11.15.31q1.44,3.13,2.87,6.28A1.86,1.86,0,0,1,53.94,51.48Zm9.47-1.06c-1.88.44-3.75.88-5.62,1.34a.56.56,0,0,1-.77-.38c-1.27-2.81-2.57-5.6-3.84-8.41a2,2,0,0,0-1-1c-2.81-1.27-5.61-2.57-8.42-3.83a.56.56,0,0,1-.38-.77c.47-1.88.91-3.77,1.36-5.66.13-.54.26-.61.75-.38l12.24,5.6a3.65,3.65,0,0,1,.34.18c.06.11.11.21.16.32l5.58,12.2C64.05,50.17,64,50.27,63.41,50.42ZM68,48c-.74-.31-1.45-.67-2.18-1a1.15,1.15,0,0,1-.65-.65c-1.61-3.53-3.23-7-4.83-10.59a2,2,0,0,0-1-1c-3.54-1.6-7.06-3.22-10.59-4.83a1.13,1.13,0,0,1-.65-.65c-.3-.7-.64-1.39-.94-2.1a2.61,2.61,0,0,1-.08-.64,2.18,2.18,0,0,1,.64.06l11.5,5.24,2.41,1.1.38.2c.06.11.12.21.17.32l6.4,14a1.78,1.78,0,0,1,0,.57A1.9,1.9,0,0,1,68,48Zm12.25-1.64c-2.62.63-5.24,1.25-7.85,1.89a.57.57,0,0,1-.8-.39q-3.66-8-7.33-16a2,2,0,0,0-1-1L47.43,23.59c-.7-.32-.7-.31-.52-1.06.56-2.33,1.11-4.65,1.67-7,.29-1.22,1-1.59,2.15-1.07l19.85,9.05c.12.06.26.09.39.14l.49.49c0,.11.06.22.1.32q4.51,9.9,9,19.79a2,2,0,0,1,.16,1.62C80.59,46.05,80.43,46.22,80.27,46.38Z"/></svg>